<?xml version="1.0" encoding="iso-8859-1"?>
<!-- Generator: Adobe Illustrator 18.1.1, SVG Export Plug-In . SVG Version: 6.00 Build 0)  -->
<svg version="1.1" id="Capa_1" xmlns="http://www.w3.org/2000/svg" xmlns:xlink="http://www.w3.org/1999/xlink" x="0px" y="0px"
	 viewBox="0 0 60.063 60.063" style="enable-background:new 0 0 60.063 60.063;" xml:space="preserve">
<g>
	<g>
		<path style="fill:#010002;" d="M46.256,23.215c-2.197,0.433-5.32,1.156-6.791-1.041c-0.842-1.256-1.419-2.728-1.904-4.249
			c1.063-1.756,1.073-4.249,0.088-5.93c-1.67-2.852-4.854-3.206-7.637-1.987c-7.146,3.127-11.271,11.766-12.929,19.085
			c-0.426,0.841-0.547,1.826-0.185,2.775c0.146,0.863,0.492,1.632,0.977,2.285c-1.015,6.871-2.922,14.188-6.749,19.972
			c-2.579,3.894,3.676,7.504,6.234,3.644c3.459-5.224,5.453-11.434,6.721-17.678c0.57,0.777,1.094,1.582,1.542,2.43
			c1.66,3.146-2.065,7.008-3.876,9.123c-3.01,3.517,2.072,8.647,5.104,5.105c3.441-4.02,7.292-8.921,6.165-14.578
			c-0.695-3.488-2.906-6.486-5.396-9.21c0.034-0.122,0.07-0.241,0.098-0.371c0.838-3.961,2.358-8.602,5.459-11.353
			c0.653,1.753,1.468,3.41,2.632,4.778c2.646,3.108,6.656,3.12,10.381,2.524l0.047,31.455l1.31,0.069l-0.046-31.756
			c0.052-0.01,0.104-0.02,0.153-0.029C50.973,27.624,49.563,22.564,46.256,23.215z"/>
		<circle style="fill:#010002;" cx="40.162" cy="5.48" r="5.48"/>
	</g>
</g>
<g>
</g>
<g>
</g>
<g>
</g>
<g>
</g>
<g>
</g>
<g>
</g>
<g>
</g>
<g>
</g>
<g>
</g>
<g>
</g>
<g>
</g>
<g>
</g>
<g>
</g>
<g>
</g>
<g>
</g>
</svg>
