<?xml version="1.0" encoding="UTF-8" standalone="no"?>
<svg xmlns:rdf="http://www.w3.org/1999/02/22-rdf-syntax-ns#" xmlns="http://www.w3.org/2000/svg" enable-background="new 0 0 1224 792" xml:space="preserve" height="666.78" viewBox="0 0 525.18262 666.77502" width="525.18" version="1.1" y="0px" x="0px" xmlns:cc="http://creativecommons.org/ns#" xmlns:dc="http://purl.org/dc/elements/1.1/"><g transform="translate(-329.28 -64.32)"><path d="m833.56 367.57c-7.76-7.95-18.59-12.15-29.66-11.55l-133.98 7.458 73.733-83.975c10.504-11.962 13.505-27.908 9.444-42.157-2.143-9.764-8.056-18.648-17.14-24.324-0.279-0.199-176.25-102.42-176.25-102.42-14.369-8.347-32.475-6.508-44.875 4.552l-85.958 76.676c-15.837 14.126-17.224 38.416-3.097 54.254 14.128 15.836 38.419 17.227 54.255 3.096l65.168-58.131 53.874 31.285-95.096 108.3c-39.433 6.431-74.913 24.602-102.76 50.801l49.66 49.66c22.449-20.412 52.256-32.871 84.918-32.871 69.667 0 126.35 56.68 126.35 126.35 0 32.662-12.459 62.467-32.869 84.916l49.657 49.66c33.08-35.166 53.382-82.484 53.382-134.58 0-31.035-7.205-60.384-20.016-86.482l51.861-2.889-12.616 154.75c-1.725 21.152 14.027 39.695 35.18 41.422 1.059 0.086 2.116 0.127 3.163 0.127 19.806 0 36.621-15.219 38.257-35.306l16.193-198.68c0.904-11.071-3.026-21.989-10.775-29.942z"/><path d="m762.38 202.96c35.523 0 64.317-28.797 64.317-64.322 0-35.523-28.794-64.323-64.317-64.323-35.527 0-64.323 28.8-64.323 64.323 0 35.525 28.795 64.322 64.323 64.322z"/><path d="m535.79 650.93c-69.668 0-126.35-56.68-126.35-126.35 0-26.256 8.056-50.66 21.817-70.887l-50.196-50.195c-26.155 33.377-41.791 75.393-41.791 121.08 0 108.54 87.983 196.52 196.52 196.52 45.691 0 87.703-15.636 121.08-41.792l-50.19-50.2c-20.226 13.757-44.63 21.816-70.884 21.816z"/></g></svg>
